<svg width="1142" height="281" viewBox="0 0 1142 281" fill="none" xmlns="http://www.w3.org/2000/svg">
<path d="M183.881 30.4182L126.722 60.2963L69.5635 30.4182L126.722 0.540039L183.881 30.4182Z" fill="#006BFF"/>
<path d="M126.722 186.658L69.5635 158.671V101.821L126.722 71.4346L184.105 101.577V158.305L126.722 186.658Z" fill="#006BFF"/>
<path d="M60.8049 154.138L0 123.609V64.7268L58.7271 35.0316L116.925 66.1496L60.8456 95.5805V154.138H60.8049Z" fill="#006BFF"/>
<path d="M193.007 95.5805L136.928 66.1496L195.126 35.0316L253.853 64.7268V123.609L193.048 154.117V95.5602L193.007 95.5805Z" fill="#006BFF"/>
<path d="M0 133.833V215.784L126.824 280.256L253.832 216.313V133.833L126.906 197.797L0 133.833Z" fill="#006BFF"/>
<path d="M1039.07 211.312L1039.27 80.928L1067.25 65.6415V154.662L1104.36 102.059H1138.42L1098.88 156.685L1141.06 211.312H1105.17L1067.25 158.709V211.312H1039.07Z" fill="black"/>
<path d="M983.507 214.347C972.152 214.347 962.419 211.818 954.308 206.76C946.198 201.702 939.979 194.823 935.654 186.123C931.328 177.423 929.165 167.611 929.165 156.685C929.165 145.625 931.396 135.745 935.856 127.045C940.385 118.346 946.738 111.501 954.917 106.51C963.095 101.519 972.76 99.0242 983.912 99.0242C996.822 99.0242 1007.64 102.295 1016.35 108.837C1025.14 115.311 1030.75 124.179 1033.18 135.442L1005.61 142.725C1003.99 137.06 1001.15 132.643 997.092 129.473C993.104 126.304 988.576 124.719 983.507 124.719C977.694 124.719 972.929 126.135 969.212 128.968C965.494 131.733 962.757 135.543 961 140.399C959.242 145.187 958.364 150.616 958.364 156.685C958.364 166.194 960.459 173.916 964.649 179.851C968.907 185.718 975.193 188.652 983.507 188.652C989.725 188.652 994.456 187.236 997.7 184.403C1000.94 181.571 1003.38 177.524 1005 172.264L1033.18 178.131C1030.08 189.731 1024.2 198.667 1015.54 204.939C1006.89 211.211 996.213 214.347 983.507 214.347Z" fill="black"/>
<path d="M871.588 214.347C860.571 214.347 850.906 211.885 842.593 206.962C834.279 202.039 827.791 195.261 823.127 186.629C818.531 177.929 816.233 167.948 816.233 156.685C816.233 145.288 818.599 135.273 823.33 126.641C828.061 117.941 834.584 111.163 842.897 106.308C851.21 101.452 860.774 99.0242 871.588 99.0242C882.605 99.0242 892.271 101.486 900.584 106.409C908.965 111.332 915.487 118.143 920.151 126.843C924.815 135.475 927.147 145.423 927.147 156.685C927.147 168.015 924.781 178.03 920.05 186.73C915.386 195.362 908.864 202.14 900.483 207.063C892.169 211.919 882.538 214.347 871.588 214.347ZM871.588 188.652C880.443 188.652 887.033 185.685 891.358 179.75C895.752 173.748 897.948 166.06 897.948 156.685C897.948 146.974 895.718 139.218 891.257 133.419C886.864 127.619 880.307 124.719 871.588 124.719C865.573 124.719 860.639 126.068 856.786 128.765C852.934 131.463 850.061 135.206 848.169 139.994C846.344 144.782 845.432 150.346 845.432 156.685C845.432 166.464 847.628 174.253 852.021 180.053C856.482 185.786 863.005 188.652 871.588 188.652Z" fill="black"/>
<path d="M700.672 211.312V65.6415H762.313C763.732 65.6415 765.625 65.7089 767.991 65.8438C770.424 65.9112 772.587 66.1136 774.479 66.4508C783.198 67.7996 790.329 70.6658 795.871 75.0494C801.481 79.433 805.604 84.963 808.24 91.6396C810.876 98.2487 812.194 105.633 812.194 113.794C812.194 126 809.152 136.453 803.069 145.153C796.986 153.786 787.456 159.113 774.479 161.137L762.313 161.946H728.248V211.312H700.672ZM782.995 211.312L754.202 152.032L782.59 146.569L814.221 211.312H782.995ZM728.248 136.251H761.096C762.516 136.251 764.07 136.184 765.76 136.049C767.45 135.914 769.004 135.644 770.424 135.24C774.141 134.228 777.014 132.542 779.041 130.182C781.069 127.754 782.455 125.09 783.198 122.19C784.009 119.223 784.415 116.424 784.415 113.794C784.415 111.163 784.009 108.398 783.198 105.499C782.455 102.531 781.069 99.8673 779.041 97.5069C777.014 95.079 774.141 93.3593 770.424 92.3477C769.004 91.9431 767.45 91.6733 765.76 91.5385C764.07 91.4036 762.516 91.3361 761.096 91.3361H728.248V136.251Z" fill="black"/>
<path d="M635.656 214.347C624.436 214.347 614.535 211.953 605.951 207.164C597.435 202.309 590.743 195.666 585.877 187.236C581.078 178.738 578.679 169.027 578.679 158.102C578.679 146.165 581.044 135.779 585.776 126.944C590.507 118.11 597.029 111.265 605.343 106.409C613.656 101.486 623.22 99.0243 634.034 99.0243C645.524 99.0243 655.291 101.722 663.334 107.117C671.377 112.512 677.325 120.099 681.177 129.878C685.03 139.657 686.382 151.155 685.233 164.374H657.961V154.258C657.961 143.13 656.169 135.138 652.587 130.283C649.073 125.36 643.294 122.898 635.251 122.898C625.856 122.898 618.928 125.764 614.467 131.497C610.074 137.162 607.877 145.558 607.877 156.685C607.877 166.869 610.074 174.759 614.467 180.357C618.928 185.887 625.45 188.652 634.034 188.652C639.441 188.652 644.071 187.472 647.924 185.111C651.776 182.751 654.716 179.345 656.744 174.894L684.32 182.785C680.197 192.766 673.675 200.521 664.753 206.052C655.899 211.582 646.2 214.347 635.656 214.347ZM599.361 164.374V143.939H671.951V164.374H599.361Z" fill="black"/>
<path d="M510.804 214.549C502.22 214.549 495.225 213.099 489.818 210.199C484.411 207.299 480.186 203.624 477.145 199.173C474.171 194.722 472.042 190.102 470.758 185.314C469.474 180.458 468.696 176.041 468.426 172.062C468.156 168.083 468.02 165.183 468.02 163.362V102.059H496.002V153.651C496.002 156.146 496.137 159.349 496.408 163.261C496.678 167.105 497.523 170.983 498.942 174.894C500.362 178.806 502.66 182.077 505.836 184.707C509.081 187.337 513.643 188.652 519.523 188.652C521.889 188.652 524.423 188.281 527.127 187.539C529.83 186.797 532.365 185.381 534.731 183.291C537.096 181.132 539.023 177.997 540.509 173.883C542.064 169.701 542.841 164.239 542.841 157.495L558.657 164.981C558.657 173.613 556.9 181.706 553.385 189.259C549.871 196.812 544.565 202.916 537.468 207.569C530.439 212.222 521.551 214.549 510.804 214.549ZM546.288 211.312V175.097H542.841V102.059H570.62V211.312H546.288Z" fill="black"/>
<path d="M426.271 211.312V80.9279L453.847 62.6067V211.312H426.271Z" fill="black"/>
<path d="M309.332 211.312V65.6415H367.728C378.137 65.6415 386.552 67.7321 392.973 71.9134C399.394 76.0272 404.091 81.2201 407.065 87.492C410.039 93.764 411.526 100.103 411.526 106.51C411.526 114.67 409.667 121.448 405.95 126.843C402.3 132.238 397.265 135.847 390.844 137.667V132.609C399.968 134.498 406.795 138.713 411.323 145.254C415.919 151.796 418.217 159.113 418.217 167.206C418.217 175.906 416.595 183.56 413.351 190.169C410.174 196.779 405.308 201.971 398.752 205.748C392.196 209.457 383.95 211.312 374.014 211.312H309.332ZM337.313 185.415H371.175C374.893 185.415 378.205 184.639 381.111 183.088C384.017 181.47 386.282 179.244 387.904 176.412C389.593 173.512 390.438 170.106 390.438 166.195C390.438 162.755 389.729 159.687 388.309 156.989C386.89 154.291 384.727 152.167 381.821 150.616C378.982 148.997 375.434 148.188 371.175 148.188H337.313V185.415ZM337.313 122.493H367.323C370.432 122.493 373.203 121.954 375.636 120.875C378.07 119.796 379.996 118.144 381.415 115.918C382.835 113.625 383.544 110.691 383.544 107.117C383.544 102.666 382.159 98.9231 379.387 95.8883C376.616 92.8535 372.595 91.3361 367.323 91.3361H337.313V122.493Z" fill="black"/>
</svg>
