<svg width="507" height="125" viewBox="0 0 507 125" fill="none" xmlns="http://www.w3.org/2000/svg">
<path d="M81.6173 13.5312L56.2469 26.8222L30.8765 13.5312L56.2469 0.240234L81.6173 13.5312Z" fill="white"/>
<path d="M56.2469 83.033L30.8765 70.5829V45.2939L56.2469 31.7769L81.7167 45.1854V70.4202L56.2469 83.033Z" fill="white"/>
<path d="M26.9888 68.5666L0 54.9863V28.7931L26.0666 15.5835L51.8981 29.426L27.0069 42.5181V68.5666H26.9888Z" fill="white"/>
<path d="M85.6682 42.5181L60.777 29.426L86.6085 15.5835L112.675 28.7931V54.9863L85.6863 68.5575V42.509L85.6682 42.5181Z" fill="white"/>
<path d="M0 59.5342V95.9894L56.2923 124.669L112.666 96.2245V59.5342L56.3284 87.9877L0 59.5342Z" fill="white"/>
<path d="M461.199 94.0002L461.289 36.0002L473.709 29.2002V68.8002L490.179 45.4002H505.299L487.749 69.7002L506.469 94.0002H490.539L473.709 70.6002V94.0002H461.199Z" fill="white"/>
<path d="M436.539 95.35C431.499 95.35 427.179 94.225 423.579 91.975C419.979 89.725 417.219 86.665 415.299 82.795C413.379 78.925 412.419 74.56 412.419 69.7C412.419 64.78 413.409 60.385 415.389 56.515C417.399 52.645 420.219 49.6 423.849 47.3801C427.479 45.1601 431.769 44.05 436.719 44.05C442.449 44.05 447.249 45.5051 451.119 48.4151C455.019 51.295 457.509 55.24 458.589 60.25L446.349 63.49C445.629 60.97 444.369 59.0051 442.569 57.5951C440.799 56.185 438.789 55.48 436.539 55.48C433.959 55.48 431.844 56.11 430.194 57.37C428.544 58.6 427.329 60.2951 426.549 62.4551C425.769 64.5851 425.379 67 425.379 69.7C425.379 73.93 426.309 77.365 428.169 80.005C430.059 82.615 432.849 83.92 436.539 83.92C439.299 83.92 441.399 83.29 442.839 82.03C444.279 80.77 445.359 78.97 446.079 76.63L458.589 79.24C457.209 84.4 454.599 88.375 450.759 91.1651C446.919 93.9551 442.179 95.35 436.539 95.35Z" fill="white"/>
<path d="M386.863 95.35C381.973 95.35 377.683 94.2551 373.993 92.0651C370.303 89.8751 367.423 86.86 365.353 83.02C363.313 79.15 362.293 74.71 362.293 69.7C362.293 64.63 363.343 60.175 365.443 56.335C367.543 52.465 370.438 49.45 374.128 47.29C377.818 45.13 382.063 44.05 386.863 44.05C391.753 44.05 396.043 45.1451 399.733 47.335C403.453 49.525 406.348 52.555 408.418 56.425C410.488 60.265 411.523 64.69 411.523 69.7C411.523 74.74 410.473 79.1951 408.373 83.0651C406.303 86.9051 403.408 89.9201 399.688 92.1101C395.998 94.2701 391.723 95.35 386.863 95.35ZM386.863 83.92C390.793 83.92 393.718 82.6 395.638 79.96C397.588 77.29 398.563 73.87 398.563 69.7C398.563 65.38 397.573 61.93 395.593 59.35C393.643 56.77 390.733 55.48 386.863 55.48C384.193 55.48 382.003 56.08 380.293 57.28C378.583 58.48 377.308 60.1451 376.468 62.2751C375.658 64.4051 375.253 66.88 375.253 69.7C375.253 74.05 376.228 77.5151 378.178 80.0951C380.158 82.6451 383.053 83.92 386.863 83.92Z" fill="white"/>
<path d="M311 94.0002V29.2002H338.36C338.99 29.2002 339.83 29.2302 340.88 29.2902C341.96 29.3202 342.92 29.4102 343.76 29.5602C347.63 30.1602 350.795 31.4352 353.255 33.3852C355.745 35.3352 357.575 37.7952 358.745 40.7652C359.915 43.7052 360.5 46.9902 360.5 50.6202C360.5 56.0502 359.15 60.7002 356.45 64.5702C353.75 68.4102 349.52 70.7802 343.76 71.6802L338.36 72.0402H323.24V94.0002H311ZM347.54 94.0002L334.76 67.6302L347.36 65.2002L361.4 94.0002H347.54ZM323.24 60.6102H337.82C338.45 60.6102 339.14 60.5802 339.89 60.5202C340.64 60.4602 341.33 60.3402 341.96 60.1602C343.61 59.7102 344.885 58.9602 345.785 57.9102C346.685 56.8302 347.3 55.6452 347.63 54.3552C347.99 53.0352 348.17 51.7902 348.17 50.6202C348.17 49.4502 347.99 48.2202 347.63 46.9302C347.3 45.6102 346.685 44.4252 345.785 43.3752C344.885 42.2952 343.61 41.5302 341.96 41.0802C341.33 40.9002 340.64 40.7802 339.89 40.7202C339.14 40.6602 338.45 40.6302 337.82 40.6302H323.24V60.6102Z" fill="white"/>
<path d="M282.142 95.35C277.162 95.35 272.767 94.285 268.957 92.155C265.177 89.995 262.207 87.0401 260.047 83.2901C257.917 79.5101 256.852 75.1901 256.852 70.3301C256.852 65.0201 257.902 60.4 260.002 56.47C262.102 52.54 264.997 49.495 268.687 47.335C272.377 45.1451 276.622 44.05 281.422 44.05C286.522 44.05 290.857 45.25 294.427 47.65C297.997 50.05 300.637 53.425 302.347 57.775C304.057 62.125 304.657 67.2401 304.147 73.1201H292.042V68.6201C292.042 63.6701 291.247 60.115 289.657 57.955C288.097 55.765 285.532 54.67 281.962 54.67C277.792 54.67 274.717 55.945 272.737 58.495C270.787 61.015 269.812 64.75 269.812 69.7C269.812 74.23 270.787 77.74 272.737 80.23C274.717 82.69 277.612 83.92 281.422 83.92C283.822 83.92 285.877 83.3951 287.587 82.3451C289.297 81.2951 290.602 79.7801 291.502 77.8001L303.742 81.31C301.912 85.75 299.017 89.2001 295.057 91.6601C291.127 94.1201 286.822 95.35 282.142 95.35ZM266.032 73.1201V64.03H298.252V73.1201H266.032Z" fill="white"/>
<path d="M226.725 95.4402C222.915 95.4402 219.81 94.7951 217.41 93.5051C215.01 92.2151 213.135 90.5801 211.785 88.6001C210.465 86.6201 209.52 84.5651 208.95 82.4351C208.38 80.2751 208.035 78.3102 207.915 76.5401C207.795 74.7701 207.735 73.4801 207.735 72.6701V45.4001H220.155V68.3501C220.155 69.4601 220.215 70.8851 220.335 72.6251C220.455 74.3351 220.83 76.0602 221.46 77.8002C222.09 79.5402 223.11 80.9951 224.52 82.1651C225.96 83.3352 227.985 83.9201 230.595 83.9201C231.645 83.9201 232.77 83.7552 233.97 83.4252C235.17 83.0952 236.295 82.4651 237.345 81.5351C238.395 80.5751 239.25 79.1801 239.91 77.3501C240.6 75.4901 240.945 73.0601 240.945 70.0601L247.965 73.3901C247.965 77.2301 247.185 80.8302 245.625 84.1902C244.065 87.5502 241.71 90.2651 238.56 92.3351C235.44 94.4051 231.495 95.4402 226.725 95.4402ZM242.475 94.0001V77.8901H240.945V45.4001H253.275V94.0001H242.475Z" fill="white"/>
<path d="M189.204 94.0001V36.0001L201.444 27.8501V94.0001H189.204Z" fill="white"/>
<path d="M137.3 94.0002V29.2002H163.22C167.84 29.2002 171.575 30.1302 174.425 31.9902C177.275 33.8202 179.36 36.1302 180.68 38.9202C182 41.7102 182.66 44.5302 182.66 47.3802C182.66 51.0102 181.835 54.0252 180.185 56.4252C178.565 58.8252 176.33 60.4302 173.48 61.2402V58.9902C177.53 59.8302 180.56 61.7052 182.57 64.6152C184.61 67.5252 185.63 70.7802 185.63 74.3802C185.63 78.2502 184.91 81.6552 183.47 84.5952C182.06 87.5352 179.9 89.8452 176.99 91.5252C174.08 93.1752 170.42 94.0002 166.01 94.0002H137.3ZM149.72 82.4802H164.75C166.4 82.4802 167.87 82.1352 169.16 81.4452C170.45 80.7252 171.455 79.7352 172.175 78.4752C172.925 77.1852 173.3 75.6702 173.3 73.9302C173.3 72.4002 172.985 71.0352 172.355 69.8352C171.725 68.6352 170.765 67.6902 169.475 67.0002C168.215 66.2802 166.64 65.9202 164.75 65.9202H149.72V82.4802ZM149.72 54.4902H163.04C164.42 54.4902 165.65 54.2502 166.73 53.7702C167.81 53.2902 168.665 52.5552 169.295 51.5652C169.925 50.5452 170.24 49.2402 170.24 47.6502C170.24 45.6702 169.625 44.0052 168.395 42.6552C167.165 41.3052 165.38 40.6302 163.04 40.6302H149.72V54.4902Z" fill="white"/>
</svg>
